<?xml version="1.0" encoding="UTF-8" standalone="no"?>
<svg
   class="site-logo-image"
   viewBox="0 0 27.2 27.18"
   version="1.1"
   id="svg6"
   sodipodi:docname="logo.svg"
   inkscape:version="1.2.1 (9c6d41e410, 2022-07-14)"
   xmlns:inkscape="http://www.inkscape.org/namespaces/inkscape"
   xmlns:sodipodi="http://sodipodi.sourceforge.net/DTD/sodipodi-0.dtd"
   xmlns="http://www.w3.org/2000/svg"
   xmlns:svg="http://www.w3.org/2000/svg">
  <defs
     id="defs10" />
  <sodipodi:namedview
     id="namedview8"
     pagecolor="#ffffff"
     bordercolor="#cccccc"
     borderopacity="1"
     inkscape:showpageshadow="0"
     inkscape:pageopacity="1"
     inkscape:pagecheckerboard="0"
     inkscape:deskcolor="#d1d1d1"
     showgrid="false"
     inkscape:zoom="27.336276"
     inkscape:cx="13.626582"
     inkscape:cy="13.608291"
     inkscape:window-width="2560"
     inkscape:window-height="1023"
     inkscape:window-x="1920"
     inkscape:window-y="0"
     inkscape:window-maximized="1"
     inkscape:current-layer="svg6" />
  <path
     d="M13.6 27.18A13.59 13.59 0 1127.2 13.6a13.61 13.61 0 01-13.6 13.58zM13.6 2a11.59 11.59 0 1011.6 11.6A11.62 11.62 0 0013.6 2z"
     fill="current"
     id="path2"
     style="fill:#ffffff" />
  <path
     d="M12.82 9.9v2.53h1.6V9.9l2.09 1.21.77-1.21-2.16-1.32 2.16-1.32-.77-1.21-2.09 1.21V4.73h-1.6v2.53l-2-1.21L10 7.26l2.2 1.32L10 9.9l.78 1.21zM18 17.79v2.52h1.56v-2.52L21.63 19l.78-1.2-2.16-1.33 2.16-1.28-.78-1.19-2.08 1.2v-2.58H18v2.56L15.9 14l-.77 1.2 2.16 1.32-2.16 1.33.77 1.15zM8.13 17.79v2.52h1.56v-2.52L11.82 19l.77-1.2-2.16-1.33 2.12-1.28-.73-1.24-2.13 1.23v-2.56H8.13v2.56L6.05 14l-.78 1.2 2.16 1.3-2.16 1.33.78 1.17z"
     fill="current"
     id="path4"
     style="fill:#ffffff" />
</svg>
