<?xml version="1.0" encoding="utf-8"?>
<!-- Generator: Adobe Illustrator 26.3.1, SVG Export Plug-In . SVG Version: 6.00 Build 0)  -->
<svg version="1.1"
	 id="svg6" xmlns:svg="http://www.w3.org/2000/svg" xmlns:inkscape="http://www.inkscape.org/namespaces/inkscape" xmlns:sodipodi="http://sodipodi.sourceforge.net/DTD/sodipodi-0.dtd"
	 xmlns="http://www.w3.org/2000/svg" xmlns:xlink="http://www.w3.org/1999/xlink" x="0px" y="0px" viewBox="0 0 23.8 23.8"
	 style="enable-background:new 0 0 23.8 23.8;" xml:space="preserve">
<style type="text/css">
	.st0{fill:none;stroke:#000000;stroke-miterlimit:10;}
</style>
<g>
	
		<sodipodi:namedview  bordercolor="#cccccc" borderopacity="1" id="namedview8" inkscape:current-layer="svg6" inkscape:cx="13.626582" inkscape:cy="13.608291" inkscape:deskcolor="#d1d1d1" inkscape:pagecheckerboard="0" inkscape:pageopacity="1" inkscape:showpageshadow="0" inkscape:window-height="1023" inkscape:window-maximized="1" inkscape:window-width="2560" inkscape:window-x="1920" inkscape:window-y="0" inkscape:zoom="27.336276" pagecolor="#ffffff" showgrid="false">
		</sodipodi:namedview>
	<path id="path4" d="M11.1,9.8v2h1.3v-2l1.6,1l0.6-1l-1.7-1l1.7-1l-0.6-1l-1.6,1v-2h-1.3v2l-1.6-1l-0.6,1l1.7,1l-1.7,1l0.6,1
		L11.1,9.8z M15.2,16v2h1.2v-2l1.6,1l0.6-0.9l-1.7-1l1.7-1L18,13.1L16.4,14v-2h-1.2v2l-1.7-0.9L12.9,14l1.7,1l-1.7,1l0.6,0.9
		L15.2,16z M7.4,16v2h1.2v-2l1.7,1l0.6-0.9l-1.7-1l1.7-1l-0.6-1l-1.7,1v-2H7.4v2l-1.6-0.9L5.1,14l1.7,1l-1.7,1L5.8,17L7.4,16z"/>
	<circle class="st0" cx="11.9" cy="11.9" r="11.4"/>
</g>
</svg>
