<?xml version="1.0" encoding="utf-8"?>
<!-- Generator: Adobe Illustrator 26.3.1, SVG Export Plug-In . SVG Version: 6.00 Build 0)  -->
<svg version="1.1" id="Livello_1" xmlns="http://www.w3.org/2000/svg" xmlns:xlink="http://www.w3.org/1999/xlink" x="0px" y="0px"
	 viewBox="0 0 70 70" style="enable-background:new 0 0 70 70;" xml:space="preserve">
<style type="text/css">
	.st0{fill:none;stroke:#0042EC;stroke-width:3;}
	.st1{fill:#0042EC;}
</style>
<path class="st0" d="M67.7,24.3v43.4H24.3L2.4,45.8V2.4h43.4L67.7,24.3z"/>
<g>
	<path class="st1" d="M25,37.9c1.6,0,2.9-1.3,2.9-2.9c0-1.6-1.3-2.9-2.9-2.9c-1.6,0-2.9,1.3-2.9,2.9C22.1,36.6,23.4,37.9,25,37.9z"
		/>
	<path class="st1" d="M35,37.9c1.6,0,2.9-1.3,2.9-2.9c0-1.6-1.3-2.9-2.9-2.9c-1.6,0-2.9,1.3-2.9,2.9C32,36.6,33.4,37.9,35,37.9z"/>
	<path class="st1" d="M45,37.9c1.6,0,2.9-1.3,2.9-2.9c0-1.6-1.3-2.9-2.9-2.9c-1.6,0-2.9,1.3-2.9,2.9C42.1,36.6,43.4,37.9,45,37.9z"
		/>
</g>
</svg>
