<?xml version="1.0" encoding="utf-8"?>
<!-- Generator: Adobe Illustrator 26.3.1, SVG Export Plug-In . SVG Version: 6.00 Build 0)  -->
<svg version="1.1" id="Livello_1" xmlns="http://www.w3.org/2000/svg" xmlns:xlink="http://www.w3.org/1999/xlink" x="0px" y="0px"
	 viewBox="0 0 70 70" style="enable-background:new 0 0 70 70;" xml:space="preserve">
<style type="text/css">
	.st0{fill:none;stroke:#0042EC;stroke-width:3;}
	.st1{fill:#0042EC;}
	.st2{fill:none;stroke:#0042EC;stroke-width:4;stroke-linecap:round;stroke-linejoin:round;}
</style>
<path class="st0" d="M67.7,24.3v43.4H24.3L2.4,45.8V2.4h43.4L67.7,24.3z"/>
<g>
	<path class="st1" d="M24.7,30.5c1.9,0,3.4-1.5,3.4-3.4c0-1.9-1.5-3.4-3.4-3.4c-1.9,0-3.4,1.5-3.4,3.4
		C21.3,28.9,22.8,30.5,24.7,30.5z"/>
	<path class="st2" d="M41.9,27.1h6.9"/>
	<path class="st2" d="M46.9,39.6c-1.2,2.1-2.9,3.8-5,5c-2.1,1.2-4.4,1.8-6.9,1.8c-2.4,0-4.8-0.6-6.9-1.8c-2.1-1.2-3.8-2.9-5-5"/>
</g>
</svg>
